<?xml version="1.0" encoding="utf-8"?>
<svg version="1.1" id="Camada_1" x="0px" y="0px" viewBox="0 0 232.1 116.5" style="enable-background:new 0 0 232.1 116.5;" xmlns="http://www.w3.org/2000/svg">
  <style type="text/css">
	.st0{fill-rule:evenodd;clip-rule:evenodd;fill:#E40520;}
	.st1{fill-rule:evenodd;clip-rule:evenodd;fill:#FFFFFF;}
	.st2{fill:#706F6F;}
</style>
  <polygon class="st0" points="232.1 17.485 0 17.485 0 92.385 232.1 92.385 232.1 17.485"/>
  <path class="st1" d="M 0 79.585 L 15.8 79.585 L 15.8 81.585 L 0 81.585 L 0 79.585 L 0 79.585 Z M 0 66.985 L 15.8 66.985 L 15.8 68.985 L 0 68.985 L 0 66.985 L 0 66.985 Z M 0 53.885 L 15.8 53.885 L 15.8 55.885 L 0 55.885 L 0 53.885 L 0 53.885 Z M 0 40.985 L 15.8 40.985 L 15.8 42.985 L 0 42.985 L 0 40.985 L 0 40.985 Z M 0 28.385 L 15.8 28.385 L 15.8 30.385 L 0 30.385 L 0 28.385 L 0 28.385 Z"/>
  <path class="st1" d="M 216.4 79.585 L 232.2 79.585 L 232.2 81.585 L 216.4 81.585 L 216.4 79.585 L 216.4 79.585 Z M 216.4 66.985 L 232.2 66.985 L 232.2 68.985 L 216.4 68.985 L 216.4 66.985 L 216.4 66.985 Z M 216.4 53.885 L 232.2 53.885 L 232.2 55.885 L 216.4 55.885 L 216.4 53.885 L 216.4 53.885 Z M 216.4 40.985 L 232.2 40.985 L 232.2 42.985 L 216.4 42.985 L 216.4 40.985 L 216.4 40.985 Z M 216.4 28.385 L 232.2 28.385 L 232.2 30.385 L 216.4 30.385 L 216.4 28.385 L 216.4 28.385 Z"/>
  <path class="st1" d="M 73.8 44.785 C 77.6 31.285 66.6 27.185 55.1 27.185 C 43.4 27.185 31 30.785 27.6 44.085 C 26.3 50.085 28 55.285 33.1 57.685 C 44.1 62.985 55.9 61.385 54.3 68.985 C 53.5 72.685 48.6 74.585 45 74.585 C 39.4 74.585 36.2 71.685 37.4 66.485 L 21.8 66.485 C 18.8 81.685 29.5 85.485 42.5 85.485 C 55.4 85.485 68.2 79.885 70.7 68.085 C 73.9 52.985 60.5 52.085 51.6 49.685 C 47.7 48.585 43.1 47.285 43.9 43.185 C 44.5 40.385 48.1 38.085 51.6 38.085 C 54.2 38.085 56.1 38.685 57.2 39.885 C 58.3 41.085 58.7 42.685 58.2 44.885 L 73.8 44.885 L 73.8 44.785 Z M 118.6 84.285 L 120.9 73.485 L 93.8 73.485 L 96.3 61.585 L 121.2 61.585 L 123.5 50.785 L 98.6 50.785 L 101.1 39.285 L 128.2 39.285 L 130.5 28.485 L 87.9 28.485 L 76 84.285 L 118.6 84.285 L 118.6 84.285 Z M 181.4 44.785 C 185.2 31.285 174.2 27.185 162.7 27.185 C 151 27.185 138.6 30.785 135.2 44.085 C 133.9 50.085 135.6 55.285 140.7 57.685 C 151.7 62.985 163.5 61.385 161.9 68.985 C 161.1 72.685 156.2 74.585 152.6 74.585 C 147 74.585 143.8 71.685 145 66.485 L 129.5 66.485 C 126.5 81.685 137.2 85.485 150.2 85.485 C 163.1 85.485 175.9 79.885 178.4 68.085 C 181.6 52.985 168.2 52.085 159.3 49.685 C 155.4 48.585 150.8 47.285 151.6 43.185 C 152.2 40.385 155.8 38.085 159.3 38.085 C 161.9 38.085 163.8 38.685 164.9 39.885 C 166 41.085 166.4 42.685 165.9 44.885 L 181.4 44.885 L 181.4 44.785 Z M 198.9 84.285 L 210.8 28.385 L 195.3 28.385 L 183.4 84.285 L 198.9 84.285 L 198.9 84.285 Z"/>
</svg>